<svg class="animated" id="freepik_stories-men-talking" xmlns="http://www.w3.org/2000/svg" viewBox="0 0 500 500" version="1.1" xmlns:xlink="http://www.w3.org/1999/xlink" xmlns:svgjs="http://svgjs.com/svgjs"><style>svg#freepik_stories-men-talking:not(.animated) .animable {opacity: 0;}svg#freepik_stories-men-talking.animated #freepik--Plants--inject-10 {animation: 1s 1 forwards cubic-bezier(.36,-0.01,.5,1.38) slideRight;animation-delay: 0s;}svg#freepik_stories-men-talking.animated #freepik--Floor--inject-10 {animation: 1s 1 forwards linear slideRight,1.5s Infinite  linear heartbeat;animation-delay: 0s,1s;}svg#freepik_stories-men-talking.animated #freepik--Shadows--inject-10 {animation: 1s 1 forwards cubic-bezier(.36,-0.01,.5,1.38) lightSpeedRight;animation-delay: 0s;}svg#freepik_stories-men-talking.animated #freepik--speech-bubbles-3--inject-10 {animation: 1s 1 forwards cubic-bezier(.36,-0.01,.5,1.38) fadeIn;animation-delay: 0s;}svg#freepik_stories-men-talking.animated #freepik--speech-bubble-2--inject-10 {animation: 1s 1 forwards cubic-bezier(.36,-0.01,.5,1.38) slideDown,1.5s Infinite  linear floating;animation-delay: 0s,1s;}svg#freepik_stories-men-talking.animated #freepik--speech-bubble-1--inject-10 {animation: 1s 1 forwards cubic-bezier(.36,-0.01,.5,1.38) zoomIn,1.5s Infinite  linear floating;animation-delay: 0s,1s;}svg#freepik_stories-men-talking.animated #freepik--chartacter-2--inject-10 {animation: 1s 1 forwards cubic-bezier(.36,-0.01,.5,1.38) slideRight;animation-delay: 0s;}svg#freepik_stories-men-talking.animated #freepik--chartacter-1--inject-10 {animation: 1s 1 forwards cubic-bezier(.36,-0.01,.5,1.38) lightSpeedLeft;animation-delay: 0s;}            @keyframes slideRight {                0% {                    opacity: 0;                    transform: translateX(30px);                }                100% {                    opacity: 1;                    transform: translateX(0);                }            }                    @keyframes heartbeat {                0% {                    transform: scale(1);                }                10% {                    transform: scale(1.1);                }                30% {                    transform: scale(1);                }                40% {                    transform: scale(1);                }                50% {                    transform: scale(1.1);                }                60% {                    transform: scale(1);                }                100% {                    transform: scale(1);                }            }                    @keyframes lightSpeedRight {              from {                transform: translate3d(50%, 0, 0) skewX(-20deg);                opacity: 0;              }              60% {                transform: skewX(10deg);                opacity: 1;              }              80% {                transform: skewX(-2deg);              }              to {                opacity: 1;                transform: translate3d(0, 0, 0);              }            }                    @keyframes fadeIn {                0% {                    opacity: 0;                }                100% {                    opacity: 1;                }            }                    @keyframes slideDown {                0% {                    opacity: 0;                    transform: translateY(-30px);                }                100% {                    opacity: 1;                    transform: translateY(0);                }            }                    @keyframes floating {                0% {                    opacity: 1;                    transform: translateY(0px);                }                50% {                    transform: translateY(-10px);                }                100% {                    opacity: 1;                    transform: translateY(0px);                }            }                    @keyframes zoomIn {                0% {                    opacity: 0;                    transform: scale(0.5);                }                100% {                    opacity: 1;                    transform: scale(1);                }            }                    @keyframes lightSpeedLeft {              from {                transform: translate3d(-50%, 0, 0) skewX(20deg);                opacity: 0;              }              60% {                transform: skewX(-10deg);                opacity: 1;              }              80% {                transform: skewX(2deg);              }              to {                opacity: 1;                transform: translate3d(0, 0, 0);              }            }        </style><g id="freepik--Plants--inject-10" class="animable" style="transform-origin: 248.202px 264.973px;"><g id="freepik--plants--inject-10" class="animable" style="transform-origin: 448.416px 257.976px;"><path d="M460.39,230.53c-5.5,14.43-17.05,24.21-21.15,53.87-.78,5.66-.08,14.53,0,19.1H427c-2.32-13.89-3.93-34.81-.76-53.67C430,227.7,441.78,215.61,450,213.17,459.11,210.44,466.17,215.33,460.39,230.53Z" style="fill: rgb(224, 224, 224); transform-origin: 443.478px 257.976px;" id="el88ne4ji47py" class="animable"></path><path d="M452.77,220.61a.59.59,0,0,0-.84,0c-12.33,13.09-24.82,46.06-18.24,82.87H435c-6.83-36.71,5.57-69.06,17.81-82.05A.59.59,0,0,0,452.77,220.61Z" style="fill: rgb(255, 255, 255); transform-origin: 442.415px 261.957px;" id="elxtf0ncdabj" class="animable"></path><path d="M456.41,278.9c-5.18,7.86-9.35,12.65-13.41,24.6h-7.74c0-27,10.38-42.53,15.4-48.17,5.48-6.16,13.44-11.87,19.54-6.48,3.84,3.39,1.9,9-.68,13.43C466.6,267.31,461.12,271.74,456.41,278.9Z" style="fill: rgb(240, 240, 240); transform-origin: 453.811px 275.1px;" id="el2ceajaq6nvu" class="animable"></path><path d="M463.81,254.76a.59.59,0,0,0-.84-.18c-8.64,5.59-22.25,29.14-24.88,48.92h1.22c2.6-19.33,16.06-42.55,24.32-47.9A.61.61,0,0,0,463.81,254.76Z" style="fill: rgb(255, 255, 255); transform-origin: 450.998px 278.988px;" id="ellxan8cxxi4q" class="animable"></path></g><g id="freepik--plants--inject-10" class="animable" style="transform-origin: 51.6415px 265.096px;"><path d="M65.54,303.31l9.69-5.6s5.77-24,3.47-45.54c-3.23-30.32-23.19-41.73-30.78-39.11s-9.79,11.44,2.77,29.5C58.1,253.21,67.2,275.4,65.54,303.31Z" style="fill: rgb(240, 240, 240); transform-origin: 60.4944px 258.003px;" id="el90b6euuztb" class="animable"></path><path d="M69.55,291.53h-.09a.67.67,0,0,1-.53-.79c5.31-28-4.46-59.39-16.56-72.46a.68.68,0,0,1,1-.92C65.68,230.67,75.64,262.61,70.25,291A.68.68,0,0,1,69.55,291.53Z" style="fill: rgb(255, 255, 255); transform-origin: 61.9791px 254.346px;" id="elhr63f625u4" class="animable"></path><path d="M41.15,317.39c-1.45.73-5.3-2.56-6.37-3.36a13.44,13.44,0,0,1-4.21-5.35,12.67,12.67,0,0,1-.74-7.62,29.49,29.49,0,0,1,1.16-4l1.32-3.84a10.06,10.06,0,0,0,.77-3.91c-.21-2.68-2.48-4.67-4.55-6.39-2.29-1.9-4.65-4.38-4.48-7.59a11.39,11.39,0,0,1,3.17-6.59c1.63-1.86,3.54-3.49,5-5.47a7.9,7.9,0,0,0,1.87-4.91,8.11,8.11,0,0,0-.93-3.17c-1-2.15-2.43-4.14-3.09-6.43s-.42-5.07,1.41-6.59c1.51-1.25,3.66-1.33,5.6-1.1a12.62,12.62,0,0,1,5,2.07c5,3.09,7.56,9.28,12.86,11.73,2,.95,4.32,1.25,6.47,1.93s4.31,1.91,5.21,4c1.79,4.07-2.14,8.77-1,13.05,1.05,3.79,4.6,5.4,6.46,8.86a8,8,0,0,1,.71,4.93,23.33,23.33,0,0,1-2.48,8.14,74,74,0,0,1-4.89,7.53Z" style="fill: rgb(224, 224, 224); transform-origin: 48.4758px 279.232px;" id="el2cneklk6th5" class="animable"></path><path d="M55.18,310.08h0a.65.65,0,0,1-.59-.7c2.32-25.15-8.15-53.58-16.38-62.1a.64.64,0,1,1,.92-.88c8.39,8.69,19.08,37.59,16.73,63.1A.64.64,0,0,1,55.18,310.08Z" style="fill: rgb(255, 255, 255); transform-origin: 47.087px 278.117px;" id="elwpunej9qqet" class="animable"></path><path d="M52.68,279.06a.41.41,0,0,1-.19,0c-8-2.91-18-3.86-18.14-3.87a.64.64,0,0,1-.58-.69.61.61,0,0,1,.69-.57c.11,0,10.34,1,18.47,3.94a.63.63,0,0,1-.25,1.23Z" style="fill: rgb(255, 255, 255); transform-origin: 43.5744px 276.514px;" id="elr9nfco91mar" class="animable"></path></g></g><g id="freepik--Floor--inject-10" class="animable" style="transform-origin: 250.003px 352.378px;"><path id="freepik--floor--inject-10" d="M94.77,262.72C9.05,312.22,9.05,392.46,94.78,442s224.72,49.49,310.45,0,85.72-129.74,0-179.24S180.5,213.23,94.77,262.72Z" style="fill: rgb(250, 250, 250); transform-origin: 250.003px 352.378px;" class="animable"></path></g><g id="freepik--Shadows--inject-10" class="animable" style="transform-origin: 250px 402.67px;"><ellipse id="freepik--Shadow--inject-10" cx="134.47" cy="402.95" rx="68.98" ry="39.82" style="fill: rgb(224, 224, 224); transform-origin: 134.47px 402.95px;" class="animable"></ellipse><ellipse id="freepik--shadow--inject-10" cx="365.53" cy="402.39" rx="68.98" ry="39.82" style="fill: rgb(224, 224, 224); transform-origin: 365.53px 402.39px;" class="animable"></ellipse></g><g id="freepik--speech-bubbles-3--inject-10" class="animable" style="transform-origin: 250.69px 82.76px;"><path id="freepik--speech-bubble--inject-10" d="M57.39,113.91c-21.18,0-38.41-14-38.41-31.15S36.21,51.61,57.39,51.61s38.41,14,38.41,31.15c0,8.42-4.26,16.53-11.7,22.38,2.1,2,5.67,2.65,9.55,1.8l1.82-.39-1,1.55c-1.9,2.8-5.73,4.87-10.27,5.53a17.85,17.85,0,0,1-12-2.12A46.09,46.09,0,0,1,57.39,113.91Zm0-60.8c-20.35,0-36.91,13.3-36.91,29.65S37,112.41,57.39,112.41A44.33,44.33,0,0,0,72,110l.36-.12.31.21a16.36,16.36,0,0,0,11.23,2.08,15.1,15.1,0,0,0,8-3.41c-4,.37-7.49-.79-9.5-3.2l-.5-.61.63-.47C90,98.85,94.3,91,94.3,82.76,94.3,66.41,77.74,53.11,57.39,53.11Z" style="fill: rgb(235, 235, 235); transform-origin: 57.39px 82.7601px;" class="animable"></path><path id="freepik--speech-bubble--inject-10" d="M444,113.91c-21.18,0-38.41-14-38.41-31.15,0-8.42,4.26-16.53,11.71-22.38-2.11-2-5.68-2.65-9.55-1.81l-1.83.4,1-1.55c1.9-2.8,5.74-4.87,10.27-5.53a17.84,17.84,0,0,1,12,2.12,46.09,46.09,0,0,1,14.8-2.4c21.18,0,38.41,14,38.41,31.15S465.19,113.91,444,113.91Zm-33.1-57.19c3.38,0,6.32,1.15,8.09,3.27l.5.6-.63.48c-7.48,5.59-11.77,13.5-11.77,21.69,0,16.35,16.56,29.65,36.91,29.65s36.91-13.3,36.91-29.65S464.37,53.11,444,53.11a44.33,44.33,0,0,0-14.65,2.44l-.36.12-.31-.21c-2.84-1.92-7-2.7-11.23-2.09a15.12,15.12,0,0,0-7.95,3.42A13.26,13.26,0,0,1,410.91,56.72Z" style="fill: rgb(235, 235, 235); transform-origin: 443.995px 82.7599px;" class="animable"></path></g><g id="freepik--speech-bubble-2--inject-10" class="animable" style="transform-origin: 278.55px 63.8449px;"><g id="freepik--speech-bubble--inject-10" class="animable" style="transform-origin: 278.55px 63.8449px;"><path d="M245,36.73h67.1a5.39,5.39,0,0,1,5.39,5.39V74.65A5.39,5.39,0,0,1,312.1,80H303v9.71a1.24,1.24,0,0,1-2.17.83L291.44,80H245a5.39,5.39,0,0,1-5.39-5.39V42.12A5.39,5.39,0,0,1,245,36.73Z" style="fill: #407BFF; transform-origin: 278.55px 63.8449px;" id="elbqcu2dim4g4" class="animable"></path></g></g><g id="freepik--speech-bubble-1--inject-10" class="animable" style="transform-origin: 229.795px 86.1249px;"><g id="freepik--speech-bubble--inject-10" class="animable" style="transform-origin: 229.795px 86.1249px;"><path d="M259.28,59h-59a5.39,5.39,0,0,0-5.39,5.39V96.91a5.39,5.39,0,0,0,5.39,5.39h9.09V112a1.24,1.24,0,0,0,2.17.83L221,102.3h38.31a5.39,5.39,0,0,0,5.39-5.39V64.37A5.39,5.39,0,0,0,259.28,59Z" style="fill: #407BFF; transform-origin: 229.795px 86.1249px;" id="elmlyimjbbn8c" class="animable"></path></g><g id="freepik--speech-bubble--inject-10"><g style="opacity: 0.5; transform-origin: 229.795px 86.1249px;" class="animable" id="el6bf3apdlkl8"><path d="M259.28,59h-59a5.39,5.39,0,0,0-5.39,5.39V96.91a5.39,5.39,0,0,0,5.39,5.39h9.09V112a1.24,1.24,0,0,0,2.17.83L221,102.3h38.31a5.39,5.39,0,0,0,5.39-5.39V64.37A5.39,5.39,0,0,0,259.28,59Z" style="fill: rgb(255, 255, 255); transform-origin: 229.795px 86.1249px;" id="elcd79w57akip" class="animable"></path></g></g></g><g id="freepik--chartacter-2--inject-10" class="animable" style="transform-origin: 366.257px 244.469px;"><g id="freepik--Chartacter--inject-10" class="animable" style="transform-origin: 366.257px 244.469px;"><g id="freepik--Arm--inject-10" class="animable" style="transform-origin: 316.708px 176.459px;"><path d="M317.49,215.39a1.86,1.86,0,0,1,2.05.88c.28-.21.44-.59.77-.7s.81.22,1.07.55a7.91,7.91,0,0,1,.16,9.3,1.26,1.26,0,0,1-.44.42,1.46,1.46,0,0,1-.69.11,16.53,16.53,0,0,1-3.7-.54,4.05,4.05,0,0,1-2.95-2.07,4.52,4.52,0,0,1,.08-2.67,6.91,6.91,0,0,1,1.45-3.21C315.84,216.83,316.7,215.6,317.49,215.39Z" style="fill: rgb(175, 97, 82); transform-origin: 318.284px 220.646px;" id="el5tfwx5u8xj6" class="animable"></path><path d="M337.22,124.09c-7.6,2-12.34,3.18-18.85,14.3-7.61,13-17.83,28.37-19.36,32-2.8,6.7-2.78,9.15,6.86,20.61,6,7.14,12.54,15.77,14.66,18.33,1,1.19,0,3.65-.52,5.11-.84,2.28.21,4.76-.4,9.13a20.29,20.29,0,0,0-4.92-1.56s3.25-3.49,1.84-5.82a.73.73,0,0,0-1.07-.22c-.78.6-2,2-3.41,3.35-2.5,2.42-1.84,2.94-.64,7.07.48,1.65,1.77,2.12,6.76,3.09s6.48.31,12.58-4.86,4.78-18.31,1.73-23.3S320.1,178,320.1,178l17.06-24.4Z" style="fill: rgb(200, 133, 106); transform-origin: 317.309px 176.974px;" id="elpti91kxwaxe" class="animable"></path><path d="M337.81,123.06c-8.16,1.84-12.36,3.79-16.67,9.86s-22.42,35.84-22.7,38.48c2.71,4.14,15.25,8,21.66,6.62l.27.5,17.44-24.18Z" style="fill: #407BFF; transform-origin: 318.125px 150.79px;" id="elwrxa80t7b98" class="animable"></path><g id="el1z7n5m7ev2y"><path d="M337.81,123.06c-8.16,1.84-12.36,3.79-16.67,9.86s-22.42,35.84-22.7,38.48c2.71,4.14,15.25,8,21.66,6.62l.27.5,17.44-24.18Z" style="opacity: 0.3; transform-origin: 318.125px 150.79px;" class="animable" id="elp7u2q5glr59"></path></g><path d="M321.77,176.42,321,177.6s-7.41.28-13.47-2.42a11.8,11.8,0,0,1-6.73-9l.7-1.34a3.14,3.14,0,0,0-.4-.13,1.78,1.78,0,0,0-1,0,3.63,3.63,0,0,0-1.8,1.9,8.12,8.12,0,0,0-.61,2.27,10.57,10.57,0,0,1-.53,2.06,11.65,11.65,0,0,1-.61,1.09,8.12,8.12,0,0,0-.92,3.48,5,5,0,0,0,.24,2.1,5.07,5.07,0,0,0,1,1.6c2.68,3,6.9,4.09,10.89,4.15,4.34.08,9.81,0,13.42-2.44a1.63,1.63,0,0,0,.84-1c.05-.46-.27-.89-.25-1.34a3.74,3.74,0,0,1,.3-.91A1.7,1.7,0,0,0,321.77,176.42Z" style="fill: #407BFF; transform-origin: 308.848px 174.008px;" id="elxccazc59u8" class="animable"></path><g id="elwvy5mbjkmh"><path d="M321.77,176.42,321,177.6s-7.41.28-13.47-2.42a11.8,11.8,0,0,1-6.73-9l.7-1.34a3.14,3.14,0,0,0-.4-.13,1.78,1.78,0,0,0-1,0,3.63,3.63,0,0,0-1.8,1.9,8.12,8.12,0,0,0-.61,2.27,10.57,10.57,0,0,1-.53,2.06,11.65,11.65,0,0,1-.61,1.09,8.12,8.12,0,0,0-.92,3.48,5,5,0,0,0,.24,2.1,5.07,5.07,0,0,0,1,1.6c2.68,3,6.9,4.09,10.89,4.15,4.34.08,9.81,0,13.42-2.44a1.63,1.63,0,0,0,.84-1c.05-.46-.27-.89-.25-1.34a3.74,3.74,0,0,1,.3-.91A1.7,1.7,0,0,0,321.77,176.42Z" style="opacity: 0.6; transform-origin: 308.848px 174.008px;" class="animable" id="elhg49bdtwp3v"></path></g></g><g id="freepik--Bottom--inject-10" class="animable" style="transform-origin: 360.044px 320.744px;"><path d="M386.49,415.21c.39,5.49,1.29,9.11,3.26,12.3s5.58,3.95,9.3,3.16a14,14,0,0,0,10.22-8.6c1.31-3.63.73-8-.18-13.06Z" style="fill: rgb(38, 50, 56); transform-origin: 398.263px 419.984px;" id="elnjeot3gnst" class="animable"></path><path d="M401.47,375c1.52.1,2.07,7.46,3,14.82,1.05,7.9,3.51,12.28,4.36,17.6,1.19,7.38.73,10.71-1.78,15.23s-12.42,9.3-17,2.95c-3.73-5.18-4-11-3.73-18.38.23-7.65.46-13,.07-18.83-.37-5.54-.83-10.91.48-11.54.12.81.23,1.84.35,2.64.09.61.28,3.61,1.13,3.63a11.23,11.23,0,0,0,0-2.09,2.5,2.5,0,0,1,.39-1.8,2.86,2.86,0,0,1,1.68-.78,43.16,43.16,0,0,1,4.5-.77,21.78,21.78,0,0,1,2.28-.13,12.49,12.49,0,0,1,2.8,0,1.36,1.36,0,0,1,.83.74,2.36,2.36,0,0,1,.09.84,6.4,6.4,0,0,0,.21,1.52c.06.22.21.48.43.43s.24-.27.24-.45c0-.9-.13-1.55-.18-2.58,0-.48-.12-1.14-.13-1.62S401.51,375.48,401.47,375Z" style="fill: rgb(55, 71, 79); transform-origin: 397.728px 401.833px;" id="eljkgga1tfiis" class="animable"></path><g id="el1bl16mst461"><path d="M403.34,409.34a.55.55,0,0,1-.47.6.54.54,0,0,1-.12-1.07A.54.54,0,0,1,403.34,409.34Z" style="opacity: 0.15; transform-origin: 402.827px 409.404px;" class="animable" id="elo3nvd6cfjyc"></path></g><g id="elt5vgage98ce"><path d="M402.76,404.24a.54.54,0,0,1-.47.59.53.53,0,0,1-.59-.47.54.54,0,0,1,.47-.59A.53.53,0,0,1,402.76,404.24Z" style="opacity: 0.15; transform-origin: 402.23px 404.3px;" class="animable" id="el9csv12m69ho"></path></g><g id="elr4mirlql8ct"><path d="M402.21,399.42a.54.54,0,0,1-.47.6.54.54,0,0,1-.12-1.07A.54.54,0,0,1,402.21,399.42Z" style="opacity: 0.15; transform-origin: 401.698px 399.484px;" class="animable" id="elw225bv8ey5j"></path></g><g id="eli06l6gsh43r"><path d="M401.67,394.67a.54.54,0,0,1-.47.6.54.54,0,0,1-.12-1.07A.54.54,0,0,1,401.67,394.67Z" style="opacity: 0.15; transform-origin: 401.158px 394.734px;" class="animable" id="elv8y8h00adv"></path></g><g id="elf6nwphrl6lg"><path d="M390.85,395.72a.53.53,0,1,1-.59-.47A.55.55,0,0,1,390.85,395.72Z" style="opacity: 0.15; transform-origin: 390.323px 395.777px;" class="animable" id="el4xz7zac1zgw"></path></g><g id="elveohzlr4no9"><path d="M391.39,400.51a.53.53,0,1,1-.59-.47A.52.52,0,0,1,391.39,400.51Z" style="opacity: 0.15; transform-origin: 390.863px 400.566px;" class="animable" id="elxr3i5hn9mt"></path></g><g id="el4ce953a3c77"><path d="M391.94,405.33a.54.54,0,0,1-.47.59.54.54,0,0,1-.12-1.07A.54.54,0,0,1,391.94,405.33Z" style="opacity: 0.15; transform-origin: 391.427px 405.384px;" class="animable" id="elosnk3gdb42"></path></g><g id="eli123749vmi"><path d="M392.52,410.43a.54.54,0,0,1-.47.6.54.54,0,0,1-.12-1.07A.54.54,0,0,1,392.52,410.43Z" style="opacity: 0.15; transform-origin: 392.008px 410.494px;" class="animable" id="el9yrbm2ss77"></path></g><g id="el1k81asxv4mw"><polygon points="397.02 412.78 392.44 377.17 394.4 377.1 397.02 412.78" style="opacity: 0.15; transform-origin: 394.73px 394.94px;" class="animable" id="elcwvn9g0w51e"></polygon></g><path d="M402.84,409.68h-.08c-3.52-.73-8.32-.16-10.65,1a.27.27,0,0,1-.36-.12.26.26,0,0,1,.12-.36c2.47-1.27,7.31-1.85,11-1.08a.27.27,0,0,1,.21.32A.3.3,0,0,1,402.84,409.68Z" style="fill: rgb(38, 50, 56); transform-origin: 397.402px 409.741px;" id="el669at1smzho" class="animable"></path><path d="M402.26,404.57a.23.23,0,0,1-.14,0c-2.7-1.24-7.93-.31-10.59,1.05a.27.27,0,0,1-.24-.49c2.77-1.42,8.21-2.37,11-1.06a.27.27,0,0,1-.08.52Z" style="fill: rgb(38, 50, 56); transform-origin: 396.799px 404.547px;" id="elmsefi75o2yr" class="animable"></path><path d="M401.71,399.75a.23.23,0,0,1-.14,0c-2.69-1.24-7.93-.31-10.59,1a.27.27,0,0,1-.36-.12.28.28,0,0,1,.12-.37c2.77-1.42,8.21-2.36,11.05-1.05a.27.27,0,0,1,.14.36A.25.25,0,0,1,401.71,399.75Z" style="fill: rgb(38, 50, 56); transform-origin: 396.273px 399.681px;" id="elxz651c9pxs" class="animable"></path><path d="M401.17,395a.23.23,0,0,1-.14,0c-2.7-1.24-7.93-.31-10.59,1a.27.27,0,0,1-.36-.12.27.27,0,0,1,.12-.37c2.77-1.41,8.21-2.36,11.05-1.05a.27.27,0,0,1,.14.36A.25.25,0,0,1,401.17,395Z" style="fill: rgb(38, 50, 56); transform-origin: 395.731px 394.932px;" id="eleivcqim25xb" class="animable"></path><polygon points="352.92 393.26 346.45 391.04 348.41 386.6 352.46 390.18 352.92 393.26" id="elwbu6azpu6hi" class="animable" style="transform-origin: 349.685px 389.93px;"></polygon><path d="M359.18,381.41s.38,4.2.48,5.52-5.37,5.61-6.74,6.34l-.46-3.09c-1.16,1.25-1.83,2.81-3,5.11-1,1.92-2.28,5.54-5.17,8.06-4.28,3.75-11.07,5.8-18.05,6.27s-11-1.13-13.07-2.6-2.71-3.23-2.27-5S359.18,381.41,359.18,381.41Z" style="fill: rgb(38, 50, 56); transform-origin: 335.215px 395.557px;" id="elgkd8ir0oc9k" class="animable"></path><path d="M340.06,367.65l-.16-2.43c-1.29,0-1.34,3.54-3.12,6.69a63.12,63.12,0,0,1-9.45,13c-6.88,6.73-13.08,11-16.15,14C307.07,403,314.69,409,326.07,408c5.65-.5,15.62-3.68,18.34-7.14s4.3-8.78,6.48-11.3,7-5.15,8.29-8.17c.73-1.66.2-5.46-.36-8.69-.52-3-.74-7.52-2.39-7.1l-.08,1.54c-.64,1.32-2.14,3.52-6.68,4.44C347.4,372.05,340.61,372.47,340.06,367.65Z" style="fill: rgb(55, 71, 79); transform-origin: 334.794px 386.665px;" id="elasnnom7pdsu" class="animable"></path><g id="el7e82cvtcml7"><path d="M346,371.83c-2.19-.12-4.55-.78-5.53-2.73l0-.06a5.6,5.6,0,0,1-1.33,4.73c-2,2.47-14.32,19.85-14.32,19.85s11.56-14.38,13.77-17.09c3.29-4,4.35-4.49,7.46-4.69Z" style="opacity: 0.15; transform-origin: 335.435px 381.33px;" class="animable" id="elfa9k874y9e"></path></g><g id="el26o7hotxohw"><path d="M343.3,376.42a.7.7,0,0,0,.79.6.71.71,0,0,0-.2-1.4A.7.7,0,0,0,343.3,376.42Z" style="opacity: 0.15; transform-origin: 343.964px 376.323px;" class="animable" id="elv99qf6ofze"></path></g><g id="elquc1f8ev2e"><path d="M340.05,380.28a.7.7,0,0,0,.78.6.71.71,0,0,0,.6-.8.7.7,0,1,0-1.38.2Z" style="opacity: 0.15; transform-origin: 340.734px 380.152px;" class="animable" id="elngygba47qh"></path></g><g id="elbtn35g20j3"><path d="M336.8,384.14a.68.68,0,0,0,.78.59.7.7,0,1,0-.78-.59Z" style="opacity: 0.15; transform-origin: 337.492px 384.037px;" class="animable" id="elcvl3gprsn27"></path></g><g id="eldr10azmz5dw"><path d="M333.55,388a.68.68,0,0,0,.78.6.7.7,0,1,0-.19-1.39A.69.69,0,0,0,333.55,388Z" style="opacity: 0.15; transform-origin: 334.24px 387.906px;" class="animable" id="el70fsk1hncad"></path></g><g id="elhi6blpnao"><path d="M330.3,391.85a.69.69,0,0,0,.78.6.7.7,0,1,0-.19-1.39A.69.69,0,0,0,330.3,391.85Z" style="opacity: 0.15; transform-origin: 330.989px 391.755px;" class="animable" id="elft89h9eqwvj"></path></g><path d="M344,376.6a.29.29,0,0,0,.16-.49c-.15-.13-3.6-3.29-8-2.9h0a.29.29,0,0,0-.25.31.28.28,0,0,0,.31.25c4.13-.37,7.51,2.73,7.55,2.76A.26.26,0,0,0,344,376.6Z" style="fill: rgb(38, 50, 56); transform-origin: 340.076px 374.891px;" id="elbmrerz7ktgr" class="animable"></path><path d="M340.77,380.45a.32.32,0,0,0,.17-.09.28.28,0,0,0,0-.4c-.15-.14-3.6-3.3-8-2.91h0a.28.28,0,0,0-.25.3.29.29,0,0,0,.31.26c4.12-.37,7.51,2.72,7.54,2.75A.3.3,0,0,0,340.77,380.45Z" style="fill: rgb(38, 50, 56); transform-origin: 336.857px 378.734px;" id="elvuj6h9cvmyr" class="animable"></path><path d="M337.52,384.32a.29.29,0,0,0,.16-.49c-.15-.14-3.6-3.3-8-2.9h0a.28.28,0,0,0-.25.3.29.29,0,0,0,.31.26c4.13-.37,7.51,2.72,7.55,2.75A.27.27,0,0,0,337.52,384.32Z" style="fill: rgb(38, 50, 56); transform-origin: 333.596px 382.609px;" id="eli33fynq7dsq" class="animable"></path><path d="M334.27,388.18a.29.29,0,0,0,.16-.49c-.15-.14-3.6-3.3-8-2.91h0a.3.3,0,0,0-.25.31.29.29,0,0,0,.31.26c4.13-.37,7.51,2.72,7.55,2.75A.27.27,0,0,0,334.27,388.18Z" style="fill: rgb(38, 50, 56); transform-origin: 330.347px 386.465px;" id="el2ws799gauly" class="animable"></path><path d="M331,392a.22.22,0,0,0,.17-.09.28.28,0,0,0,0-.4c-.15-.13-3.6-3.29-8-2.9h0a.29.29,0,0,0,.06.57c4.12-.37,7.51,2.72,7.55,2.75A.26.26,0,0,0,331,392Z" style="fill: rgb(38, 50, 56); transform-origin: 327.104px 390.29px;" id="elenlhstj9yu" class="animable"></path><path d="M401.4,210.53c3.08,44.26,3.25,92.17,3.25,92.17A277.21,277.21,0,0,1,407,334.53c.15,16.1-1.77,50.53-1.77,50.53s-10.14,7.26-21.08,1.79c0,0-8.12-43.58-11.77-66.94-2.92-18.68-6.11-38.16-6.11-38.16l-2.43,19.85a131.71,131.71,0,0,1,1.17,25c-.62,9.4-4.91,48-4.91,48s-15.56,8-25.85-2.42c0,0-3.23-60.73-3.89-72-1.3-22.17-1.59-61.1-1.06-89.24Z" style="fill: rgb(69, 90, 100); transform-origin: 368.029px 299.71px;" id="elckkx6hpj9zu" class="animable"></path><path d="M366.26,281.75l-6.45-42.88s-10.68-1.2-16.31-6.07c0,0,3.75,6.57,13.87,8.82l5.34,34.79,1.12,25.19Z" style="fill: rgb(38, 50, 56); transform-origin: 354.88px 267.2px;" id="eldpj59spj9g" class="animable"></path></g><g id="freepik--Top--inject-10" class="animable" style="transform-origin: 382.919px 140.445px;"><path id="freepik--Chest--inject-10" d="M376.19,118.73c4.27.81,9.43,1.85,9.43,1.85s7.31,2.56,9.59,3.51c0,0,12.21,16.47,9.05,37.42-.66,4.37-2.39,19.44-2.33,28.58.07,12.34.38,25.71.38,25.71s-14,8.65-44.05,6.87c-23.63-1.4-29.33-7.71-29.33-7.71s.27-31.86.61-49.27c.44-22.87,3.24-38.56,8.27-42.63l16.7-5.48Z" style="fill: #407BFF; transform-origin: 366.856px 170.246px;" class="animable"></path><g id="freepik--chest--inject-10"><path d="M376.19,118.73c4.27.81,9.43,1.85,9.43,1.85s7.31,2.56,9.59,3.51c0,0,12.21,16.47,9.05,37.42-.66,4.37-2.39,19.44-2.33,28.58.07,12.34.38,25.71.38,25.71s-14,8.65-44.05,6.87c-23.63-1.4-29.33-7.71-29.33-7.71s.27-31.86.61-49.27c.44-22.87,3.24-38.56,8.27-42.63l16.7-5.48Z" style="opacity: 0.6; transform-origin: 366.856px 170.246px;" class="animable" id="el5lj0gjcz7yo"></path></g><g id="freepik--Head--inject-10" class="animable" style="transform-origin: 363.41px 95.2543px;"><path d="M386.46,74.53a8.94,8.94,0,0,0-4.84-4.38c-1.15-5.71-8.65-9.74-13.28-11.23-6.3-2-12.75-.55-18.69,1.89A13.71,13.71,0,0,1,343,62.16c-1-.12-2.12-.6-2.29-1.58a3.22,3.22,0,0,0-1.4,2.13,8.54,8.54,0,0,0,.61,6,3.19,3.19,0,0,0-2.05,1.59,8.56,8.56,0,0,0-.51,8c2.41,5.35,8.22,5.38,13.1,6.91L365,89.69l12.19,3.8L377,99.88V109a5.89,5.89,0,0,0,3.34-2.82,50.43,50.43,0,0,0,4.71-12.89C388,81.34,387.71,76.78,386.46,74.53Z" style="fill: rgb(38, 50, 56); transform-origin: 361.981px 83.4893px;" id="el6cgo616abml" class="animable"></path><path d="M385.46,101.37c-4.69,2.44-6.95-1.26-6.95-1.26l-.2,18.9c-5,6.56-15.05,6.33-21.87,13.52-2.67-4.39-3.19-10.57-1.61-14.23l-.1-4.31a27.72,27.72,0,0,1-4.12-.29c-4.21-.55-7.82-3.37-9.19-9-1.66-6.78-1.45-19.83.25-28.81.65-3.46,1.74-4.44,3.74-5.49,5-2.63,19.74-3.48,23.86,2.56-.48,3.72.7,7.8,4.14,8.94.27,5.88,1.18,8.7,3.51,9.61,1.9.74,2.74-2.19,4-3.58a5.29,5.29,0,0,1,8.28,1.68A8.61,8.61,0,0,1,385.46,101.37Z" style="fill: rgb(200, 133, 106); transform-origin: 365.248px 100.463px;" id="el7w77xztezpb" class="animable"></path><path d="M354.73,114c5.51-.18,10.38-1,13.6-2.45s6-5.94,6.81-10.32c.09,3.51-1.28,9.78-6.14,12.49s-10.6,3-14.2,3.19Z" style="fill: rgb(175, 97, 82); transform-origin: 364.937px 109.07px;" id="eltlal0dgnynn" class="animable"></path><path d="M360,80.27,364.26,83a2.64,2.64,0,0,0-.8-3.58A2.47,2.47,0,0,0,360,80.27Z" style="fill: rgb(38, 50, 56); transform-origin: 362.323px 81.0183px;" id="el1ai0y60exrq" class="animable"></path><path d="M342.81,81.46l4.68-2a2.44,2.44,0,0,0-3.26-1.39A2.67,2.67,0,0,0,342.81,81.46Z" style="fill: rgb(38, 50, 56); transform-origin: 345.063px 79.664px;" id="els33kkpabtqi" class="animable"></path><path d="M362.7,86.76a2.06,2.06,0,1,1-2-2.08A2.06,2.06,0,0,1,362.7,86.76Z" style="fill: rgb(38, 50, 56); transform-origin: 360.64px 86.7391px;" id="elaepa0l8mdsr" class="animable"></path><path d="M348.31,86.12a2.06,2.06,0,1,1-2-2.07A2.07,2.07,0,0,1,348.31,86.12Z" style="fill: rgb(38, 50, 56); transform-origin: 346.25px 86.1091px;" id="el8a75tuj8mpg" class="animable"></path><path d="M354.19,83.27l-1.35,13.15-7-2.37A30.67,30.67,0,0,1,354.19,83.27Z" style="fill: rgb(175, 97, 82); transform-origin: 350.015px 89.845px;" id="el5tkf77otx4q" class="animable"></path><path d="M359.81,98.22l-6.94,2.5a3.63,3.63,0,0,0,4.67,2.35A3.86,3.86,0,0,0,359.81,98.22Z" style="fill: rgb(175, 97, 82); transform-origin: 356.443px 100.748px;" id="eltexxfs4j06" class="animable"></path><path d="M359.11,99.5a3.87,3.87,0,0,1,.89-.11,3.83,3.83,0,0,1-2.46,3.68,3.41,3.41,0,0,1-1.17.19A3.37,3.37,0,0,1,359.11,99.5Z" style="fill: rgb(242, 143, 143); transform-origin: 358.171px 101.325px;" id="eluo0led9hbw" class="animable"></path></g><g id="freepik--Tie--inject-10" class="animable" style="transform-origin: 367.369px 125.389px;"><path d="M356.44,132.53s3.5-3.23,5.75-3.23c2.6,0,5,4.77,5.71,6.44s.56,1.65,2.85.2a86.31,86.31,0,0,0,11.4-8.48c4.45-4.14,4.75-6.88,4.75-6.88s-7-7-8.53-6.81l0,2.46c-.31,2.29-14.39,7.54-15.63,8.69A59.21,59.21,0,0,0,356.44,132.53Z" style="fill: #407BFF; transform-origin: 371.67px 125.389px;" id="elkzdg2oeeijj" class="animable"></path><path d="M348.13,133.74c.34.94,2.72-7.09,4.17-6.91.7.07,2.24,2.82,4.14,5.7-.56-2.25-1.91-4.89-2-7.84a47.27,47.27,0,0,1,.38-6.39l-.06-2.27c-.48,0-2,.88-3.6,2.7a11.84,11.84,0,0,0-2.85,5.71A28.84,28.84,0,0,0,348.13,133.74Z" style="fill: #407BFF; transform-origin: 352.139px 124.923px;" id="elllih2wr32bq" class="animable"></path></g><g id="freepik--tie--inject-10"><g style="opacity: 0.3; transform-origin: 367.369px 125.389px;" class="animable" id="el2ufwe7fqt2i"><path d="M356.44,132.53s3.5-3.23,5.75-3.23c2.6,0,5,4.77,5.71,6.44s.56,1.65,2.85.2a86.31,86.31,0,0,0,11.4-8.48c4.45-4.14,4.75-6.88,4.75-6.88s-7-7-8.53-6.81l0,2.46c-.31,2.29-14.39,7.54-15.63,8.69A59.21,59.21,0,0,0,356.44,132.53Z" id="elu2slir95uii" class="animable" style="transform-origin: 371.67px 125.389px;"></path><path d="M348.13,133.74c.34.94,2.72-7.09,4.17-6.91.7.07,2.24,2.82,4.14,5.7-.56-2.25-1.91-4.89-2-7.84a47.27,47.27,0,0,1,.38-6.39l-.06-2.27c-.48,0-2,.88-3.6,2.7a11.84,11.84,0,0,0-2.85,5.71A28.84,28.84,0,0,0,348.13,133.74Z" id="elarcx7ps7f1s" class="animable" style="transform-origin: 352.139px 124.923px;"></path></g></g><path d="M395.21,124.09c13.88,3.62,15.78,7.13,21.52,19.06,2.95,6.13,10.31,20.46,12.48,25.29,6.71,15,7.15,23.37,2.72,26.87-5.07,4-33.54-31.51-33.54-31.51S384.16,134.53,395.21,124.09Z" style="fill: #407BFF; transform-origin: 412.919px 159.857px;" id="elafnqvl68y1v" class="animable"></path><g id="elz8pki8uqry"><path d="M395.21,124.09c13.88,3.62,15.78,7.13,21.52,19.06,2.95,6.13,10.31,20.46,12.48,25.29,6.71,15,7.15,23.37,2.72,26.87-5.07,4-33.54-31.51-33.54-31.51S384.16,134.53,395.21,124.09Z" style="opacity: 0.3; transform-origin: 412.919px 159.857px;" class="animable" id="el6uxf57iitwg"></path></g><g id="elt3i79mgjfe"><path d="M422.16,188.86c-1.2-1.23-2.56-2.69-4-4.27-7-8.43-19.77-20.79-19.77-20.79a87,87,0,0,1-3.47-8.36c4.67,2.5,23.28,11.71,28.7,16,5.88,4.64,6.53,8.83,8.12,13.64Z" style="opacity: 0.3; transform-origin: 413.33px 172.15px;" class="animable" id="el7bqxxwhpvpw"></path></g><path d="M412.32,166.55c6.28-.77,19.05,5.27,21.79,9.39s1.38,7.55,2.2,10.16,1.17,7.41-1.47,10-10.5,5.43-18-.65Z" style="fill: #407BFF; transform-origin: 424.614px 182.78px;" id="eld2h36rjipod" class="animable"></path><g id="el6uwimrxswch"><path d="M412.32,166.55c6.28-.77,19.05,5.27,21.79,9.39s1.38,7.55,2.2,10.16,1.17,7.41-1.47,10-10.5,5.43-18-.65Z" style="opacity: 0.6; transform-origin: 424.614px 182.78px;" class="animable" id="elgwvnwwekpdh"></path></g><path d="M399.22,160.29c-5.65-2.87-7.62-3.68-11.72-7.77s-7.72-6.18-10.63-8.18-4.79-5.42-6.37-6.86c-1.1-1-2.49.81-2.09,3.44.28,1.82,1.67,3.92,3.59,6s.91,1.84-1.47,1.51a83.87,83.87,0,0,0-13.07,0c-2.39.35-4.71,1.22-4.33,2.74,0,0-3.84-.36-4,1.67s2.71,3.48,2.71,3.48-.14,1.68,2.83,2.69c1.67.57,6.74,1.31,8.55,1.78,2.06.53,4.27,1.33,4.27,1.33a87.15,87.15,0,0,0-8.85,0c-2.43.32-2.1,2,.71,3.16s10.93,1.12,13.34,2.1,4.54,1.41,9.22,1.93a9.72,9.72,0,0,1,6.49,3.31c2.84,3,15.49,13.37,18.73,16.77a25.37,25.37,0,0,0,12.33,6.91c6.25,1.69,11.52.05,12.68-1.11s1.79-5.08-.82-11.11c-3.44-7.95-5.16-9.46-10.82-13.05C414.2,167.05,402.25,161.82,399.22,160.29Z" style="fill: rgb(200, 133, 106); transform-origin: 391.134px 167.113px;" id="elrrc8an0dlmp" class="animable"></path><path d="M372,146.9c1.17,1.26,1.25,1.67.61,1.72h0c.92,0,2.77.39,3-.35s-1.61-1.78-3.42-3a12.47,12.47,0,0,1-3.76-4.31C368.69,142.74,370.08,144.84,372,146.9Z" style="fill: rgb(175, 97, 82); transform-origin: 372.03px 144.841px;" id="el3vbvuk4i0ag" class="animable"></path><path d="M353.13,151.15a75.85,75.85,0,0,1,11.18-.09,33,33,0,0,1,4.58.63,44.45,44.45,0,0,1,4.49,1.09c-1.53,0-3.05-.13-4.56-.28s-3-.33-4.49-.38-5.14-.29-6.66-.45S354.65,151.33,353.13,151.15Z" style="fill: rgb(175, 97, 82); transform-origin: 363.255px 151.838px;" id="elyuv1i017fke" class="animable"></path><path d="M351.8,156.3a1.17,1.17,0,0,1,.11-.61,1.27,1.27,0,0,1,.48-.44,3.9,3.9,0,0,1,1.24-.35,14.26,14.26,0,0,1,2.53-.05c1.66.07,5.42.29,7.08.47.83.11,1.67.21,2.51.37s1.66.41,2.46.62c1.61.43,3.23.89,4.84,1.42-1.67-.13-3.33-.33-5-.61-.84-.13-1.65-.35-2.44-.44s-1.63-.22-2.45-.3c-1.65-.2-5.4-.47-7.05-.7a20.6,20.6,0,0,0-2.44-.25C352.93,155.39,352,155.41,351.8,156.3Z" style="fill: rgb(175, 97, 82); transform-origin: 362.423px 156.273px;" id="elqvq1ewdn6w" class="animable"></path><path d="M372.34,162.36s-2.72-.58-4.27-1-6.64-.91-6.64-.91h0c.42.07,1.4.21,1.75.3,2.06.53,4.27,1.33,4.27,1.33A47.56,47.56,0,0,1,372.34,162.36Z" style="fill: rgb(175, 97, 82); transform-origin: 366.885px 161.405px;" id="elgccf8xq3ndu" class="animable"></path></g></g></g><g id="freepik--chartacter-1--inject-10" class="animable" style="transform-origin: 167.965px 244.473px;"><g id="freepik--chartacter--inject-10" class="animable" style="transform-origin: 167.965px 244.473px;"><g id="freepik--bottom--inject-10" class="animable" style="transform-origin: 137.671px 314.837px;"><path d="M148.29,368,146.5,350.1,168.75,348s-1,14.15-.95,20.64c0,3.06,2.14,8.84,2.14,8.84s-8.8,4.46-13.32,2.56-7.47-9.09-7.35-10.4Z" style="fill: rgb(255, 189, 167); transform-origin: 158.22px 364.256px;" id="elv08kuss71g" class="animable"></path><path d="M195.19,399.4c.31,0,.42,2.88-1.34,4.21-2,1.54-8.42,4.38-15.88,3s-11.4-3.89-14.27-6.54-6.87-6.38-10.23-7.3a24.46,24.46,0,0,1-8.21-4.64c-1-1-.57-5.29-.57-5.29Z" style="fill: rgb(38, 50, 56); transform-origin: 169.985px 394.909px;" id="elose9uyo8l9l" class="animable"></path><path d="M148.13,366.33s-.42.18-.67,1.16c-.3,1.17-.75,4.58-1.36,6.49-.85,2.65-1.64,8.13-1.35,10.34s6.13,5.18,9.35,6.6a41.71,41.71,0,0,1,10.28,7.23c3.36,3.06,10.62,6.46,15.53,6.7,5.8.28,12.44-1.21,14.09-3.77,2-3.17,3.61-6.9-4.75-11.3-1.59-.84-7.11-4.49-9-5.8-5.08-3.56-8.61-6.77-10.7-12.69a3.21,3.21,0,0,0-1.13-1.83,2.77,2.77,0,0,0-1.66-.24c-1.45.11-7.21.57-8.55,1.11-1.19.48-2.86,1-2.92,2.47a4.8,4.8,0,0,0,.24,1.5c.08.3.14.7-.13.86s-.58-.05-.8-.26a22.36,22.36,0,0,1-2.15-2.87,24.85,24.85,0,0,0-2.07-2.6,14.61,14.61,0,0,1-1.42-1A3.29,3.29,0,0,1,148.13,366.33Z" style="fill: rgb(69, 90, 100); transform-origin: 170.146px 385.607px;" id="elzoxhbz7mz4t" class="animable"></path><path d="M164.38,398.15a56.26,56.26,0,0,0-4.49-3.71h0s9.76,6.61,14,4.1c2.73-1.63,1.61-3.85,1.58-4.54s9.56-5,12.13-5.18h0c.69.43,1.26.79,1.64,1,6.56,3,7.25,6.47,5.88,10.69-1.65,2.57-7.63,5-15.13,4.56C175.1,404.75,167.74,401.21,164.38,398.15Z" style="fill: rgb(55, 71, 79); transform-origin: 177.797px 396.971px;" id="elk4n1dn2fs5" class="animable"></path><path d="M174.89,392c5.23,2.4,2.89,3.26,1.38,3.38s-10.21-5.54-15.45-10.12c-5.46-4.78-9.57-11-11.6-12.77-.76-.66-1.57-1.46-2.28-2.2.2-1.15.38-2.2.52-2.75.25-1,.67-1.16.67-1.16a6.36,6.36,0,0,0,.84,2.08,14.61,14.61,0,0,0,1.42,1,24.85,24.85,0,0,1,2.07,2.6,22.36,22.36,0,0,0,2.15,2.87C158.94,381,169.67,389.55,174.89,392Z" style="fill: rgb(55, 71, 79); transform-origin: 162.53px 380.881px;" id="elykl1clhzkb" class="animable"></path><path d="M175.93,394.54a.53.53,0,0,1-.36-.87c1.62-1.74,9-5.66,12.94-5a.52.52,0,0,1,.43.6.52.52,0,0,1-.61.43c-3.65-.6-10.69,3.31-12,4.68A.52.52,0,0,1,175.93,394.54Z" style="fill: rgb(38, 50, 56); transform-origin: 182.196px 391.568px;" id="elyhwy1z5i1rp" class="animable"></path><path d="M171.44,391.45a.51.51,0,0,1-.33-.13.51.51,0,0,1,0-.74c1.61-1.73,9-5.65,12.93-5a.52.52,0,0,1,.43.6.51.51,0,0,1-.61.43c-3.65-.59-10.69,3.31-12,4.69A.52.52,0,0,1,171.44,391.45Z" style="fill: rgb(38, 50, 56); transform-origin: 177.714px 388.48px;" id="eljpisu6zqfy" class="animable"></path><path d="M166.93,388.52a.53.53,0,0,1-.36-.88c1.61-1.73,9-5.65,12.93-5a.51.51,0,0,1,.43.6.52.52,0,0,1-.61.43c-3.65-.6-10.69,3.3-12,4.68A.53.53,0,0,1,166.93,388.52Z" style="fill: rgb(38, 50, 56); transform-origin: 173.188px 385.544px;" id="elyq9d93vcije" class="animable"></path><path d="M162.78,385.22a.53.53,0,0,1-.36-.87c1.62-1.74,9-5.65,12.93-5a.53.53,0,0,1,.44.6.53.53,0,0,1-.61.43c-3.65-.59-10.69,3.31-12,4.68A.52.52,0,0,1,162.78,385.22Z" style="fill: rgb(38, 50, 56); transform-origin: 169.045px 382.249px;" id="el9rohpl9sbjp" class="animable"></path><path d="M158.73,381.93a.54.54,0,0,1-.32-.13.52.52,0,0,1,0-.74c2.23-2.46,9.93-5.65,13.84-5a.52.52,0,0,1,.43.6.53.53,0,0,1-.61.43c-3.51-.58-10.89,2.49-12.87,4.67A.51.51,0,0,1,158.73,381.93Z" style="fill: rgb(38, 50, 56); transform-origin: 165.471px 378.956px;" id="elc7ek2hemmr" class="animable"></path><path d="M107.41,377.59l6.36-21.71-21.5-4.7-1.73,21.71s-2,5.74-.93,7.82,14,5,15.29,3.73S107.41,377.59,107.41,377.59Z" style="fill: rgb(255, 189, 167); transform-origin: 101.533px 367.965px;" id="elthigsmn9wqa" class="animable"></path><path d="M103,412.15c-.88,4.9-2.12,8-4.43,10.58s-6.14,2.77-9.83,1.22-8.27-4.72-8.87-9.2,0-7.37,1.33-11.82Z" style="fill: rgb(38, 50, 56); transform-origin: 91.3185px 413.932px;" id="elmeizjjnzfs" class="animable"></path><path d="M90.54,372.89c-1.57-.18-1.39,3.73-2.55,10.34-1.26,7.16-4.87,12.61-6.39,18.31-1.74,6.52-1.68,9.58.5,14.12s11.07,10.23,16.32,5.28c4.29-4,5-9.25,5.45-16a149.9,149.9,0,0,1,1.57-17.09c.87-5,3.26-9.45,2-10.26-.19.72-1.85,5.7-2.72,5.56a9.25,9.25,0,0,1,.19-1.89,2.13,2.13,0,0,0-.24-1.7,7.38,7.38,0,0,0-2.45-1.44c-1.5-.55-4.2-1.29-5.75-1.7-.77-.21-1.54-.38-2.32-.52a6.75,6.75,0,0,0-2-.11,1.22,1.22,0,0,0-.92.52,1.91,1.91,0,0,0-.17.75,4.64,4.64,0,0,1-.35,1.34c-.08.19-.26.4-.48.31a.44.44,0,0,1-.21-.45C90.08,377.45,90.46,373.31,90.54,372.89Z" style="fill: rgb(69, 90, 100); transform-origin: 94.0859px 397.87px;" id="elsgtyj2qs16" class="animable"></path><path d="M82.17,399.7c-.27.94-1.91,7.17-.08,8.68s3.71-3.17,3.71-3.17,5.12-.44,12,3.71c-.49,1,.24,4.6,2.31,4.24s3.66-7.55,3.68-7.64c-.42,6.47-1.25,11.5-5.41,15.42-5.25,4.95-14.14-.74-16.32-5.28s-2.24-7.6-.5-14.12C81.77,400.89,82,400.28,82.17,399.7Z" style="fill: rgb(55, 71, 79); transform-origin: 92.0612px 411.277px;" id="elrvalnpzlxpg" class="animable"></path><path d="M86.32,405.74c-.31,2.42-2.9,1.1-2.63-2.34s2.61-11.69,3.65-17.28c1-8.08,1.63-13.41,3.2-13.23,0,.08,0,.16,0,.24s-.45,4.61-.51,5.13c-.59,4.93-1.27,14.55-2.25,19A68.65,68.65,0,0,0,86.32,405.74Z" style="fill: rgb(55, 71, 79); transform-origin: 87.1052px 389.931px;" id="eliu4wk3waww" class="animable"></path><path d="M97,408.7a68.51,68.51,0,0,0,2.44-8.23c1-4.37,4.26-13.07,5.87-17.75.47-.76,2.09-5.13,2.09-5.13,1.07.38-.29,4.55-.92,6.51s-1.4,4-2.22,6.86c-2,5.51-2.67,13.93-3.93,17.1S96.23,411,97,408.7Z" style="fill: rgb(55, 71, 79); transform-origin: 102.334px 394.012px;" id="elzhcqakn7i3" class="animable"></path><path d="M98,409.14a.72.72,0,0,1-.2-.09,21.55,21.55,0,0,0-11.88-3.32.65.65,0,0,1-.66-.5.47.47,0,0,1,.48-.55,22.63,22.63,0,0,1,12.7,3.56.52.52,0,0,1,.16.74A.55.55,0,0,1,98,409.14Z" style="fill: rgb(38, 50, 56); transform-origin: 91.9723px 406.923px;" id="eluptgj822tde" class="animable"></path><path d="M99.87,404.13a.66.66,0,0,1-.19-.09,26.8,26.8,0,0,0-13.3-3.71.65.65,0,0,1-.65-.51.49.49,0,0,1,.51-.54,27.58,27.58,0,0,1,14,3.93.52.52,0,0,1,.2.73A.56.56,0,0,1,99.87,404.13Z" style="fill: rgb(38, 50, 56); transform-origin: 93.1217px 401.713px;" id="elnhg3pr1t57" class="animable"></path><path d="M87.32,395.41a.66.66,0,0,1-.45-.44.47.47,0,0,1,.44-.58c7.22-.82,13.76,3.61,14,3.8a.51.51,0,0,1,.16.74.6.6,0,0,1-.8.07c-.06,0-6.42-4.34-13.14-3.57A.71.71,0,0,1,87.32,395.41Z" style="fill: rgb(38, 50, 56); transform-origin: 94.2114px 396.705px;" id="elea6s0u09a1n" class="animable"></path><path d="M88.26,390.78a.61.61,0,0,1-.45-.43.46.46,0,0,1,.42-.59,20.88,20.88,0,0,1,14.33,3.81.51.51,0,0,1,.12.75.62.62,0,0,1-.82,0s-5.94-4.5-13.35-3.54A.69.69,0,0,1,88.26,390.78Z" style="fill: rgb(38, 50, 56); transform-origin: 95.2925px 392.062px;" id="el12fh4luu3zp" class="animable"></path><path d="M89.33,385.57a.62.62,0,0,1-.45-.42.46.46,0,0,1,.41-.59c7.47-1.08,14.14,3.77,14.42,4a.5.5,0,0,1,.13.74.61.61,0,0,1-.81,0c-.06-.05-6.5-4.72-13.44-3.73A.57.57,0,0,1,89.33,385.57Z" style="fill: rgb(38, 50, 56); transform-origin: 96.4055px 386.929px;" id="eliqqzvqtq6n" class="animable"></path><path d="M103.45,204.74c-.47,0-2.2,20.66-2.36,22.7-.78,9.65-1.86,19.17-2,28.84-.08,5-1,14.21-1.21,19.25a293.2,293.2,0,0,1-3.7,37.18A122.35,122.35,0,0,0,92.38,327c-.27,4.95,0,10-1.24,14.81a66.4,66.4,0,0,0-1.67,6.45c-.41,2.8.21,4.35,1.87,6.56.17,3.11-.24,4.11.62,4.86,4.31,3.75,12.93,4.41,18.72,4.4.91,0,1.76-2.07,2.21-2.88s.26-1.24,1.08-1.76,2.33-1,3.14-1.59a8.56,8.56,0,0,0,3.19-4.88c.55-1.89.73-3.86,1.17-5.78a67.91,67.91,0,0,1,2.75-7.91,116.26,116.26,0,0,0,4.35-17.16c.86-4.29,1.69-8.59,2.59-12.87,2.81-13.27,4.16-21.66,5.75-31.12S142.4,297,142.4,297a30.72,30.72,0,0,1-.27,5.15c-.14,3.36-.07,6.66-.52,10a69.54,69.54,0,0,0,.55,22.16c.71,3.84,1.34,6.49,1.12,10.4-.13,2.29-.54,4.32.36,6.44.64,1.53,1.59,1.91,2.4,3.32.34.59.34,5.19.7,5.41,0,0,13.39,6.94,21.91.08.12-1.33,0-4,.57-5.17a7.28,7.28,0,0,0,2.52-5c.16-2.16-.5-3.74-.51-5.9a68.38,68.38,0,0,1,.77-7.94,87.8,87.8,0,0,0,.47-11.35c0-3.29-.59-6.79-.06-10A133.64,133.64,0,0,0,173.6,298c.73-21.42,1.1-65-1.18-92.68Z" style="fill: #407BFF; transform-origin: 131.754px 284.41px;" id="elyrrx1psbeyd" class="animable"></path><g id="el0lorslpbobzm"><path d="M103.45,204.74c-.47,0-2.2,20.66-2.36,22.7-.78,9.65-1.86,19.17-2,28.84-.08,5-1,14.21-1.21,19.25a293.2,293.2,0,0,1-3.7,37.18A122.35,122.35,0,0,0,92.38,327c-.27,4.95,0,10-1.24,14.81a66.4,66.4,0,0,0-1.67,6.45c-.41,2.8.21,4.35,1.87,6.56.17,3.11-.24,4.11.62,4.86,4.31,3.75,12.93,4.41,18.72,4.4.91,0,1.76-2.07,2.21-2.88s.26-1.24,1.08-1.76,2.33-1,3.14-1.59a8.56,8.56,0,0,0,3.19-4.88c.55-1.89.73-3.86,1.17-5.78a67.91,67.91,0,0,1,2.75-7.91,116.26,116.26,0,0,0,4.35-17.16c.86-4.29,1.69-8.59,2.59-12.87,2.81-13.27,4.16-21.66,5.75-31.12S142.4,297,142.4,297a30.72,30.72,0,0,1-.27,5.15c-.14,3.36-.07,6.66-.52,10a69.54,69.54,0,0,0,.55,22.16c.71,3.84,1.34,6.49,1.12,10.4-.13,2.29-.54,4.32.36,6.44.64,1.53,1.59,1.91,2.4,3.32.34.59.34,5.19.7,5.41,0,0,13.39,6.94,21.91.08.12-1.33,0-4,.57-5.17a7.28,7.28,0,0,0,2.52-5c.16-2.16-.5-3.74-.51-5.9a68.38,68.38,0,0,1,.77-7.94,87.8,87.8,0,0,0,.47-11.35c0-3.29-.59-6.79-.06-10A133.64,133.64,0,0,0,173.6,298c.73-21.42,1.1-65-1.18-92.68Z" style="opacity: 0.3; transform-origin: 131.754px 284.41px;" class="animable" id="el6re8viq0pvi"></path></g><g id="elca2pblgo5gc"><path d="M115.08,229.89c1.51,17-7.86,23.3-13.78,23.3C101.3,253.19,113.29,247.12,115.08,229.89Z" style="opacity: 0.3; transform-origin: 108.271px 241.54px;" class="animable" id="elj9z5ctair79"></path></g><g id="el8mvrb7u9l5j"><path d="M142.94,239.89,136.25,282c.22-1.3.44-2.6.66-3.93,1.6-9.45,5.49,18.88,5.49,18.88l-1-18.5a75.7,75.7,0,0,1,1.26-17.26l3.91-18.1a21.5,21.5,0,0,0,13.16-9.89C154.66,238.05,142.94,239.89,142.94,239.89Z" style="opacity: 0.3; transform-origin: 147.99px 265.075px;" class="animable" id="elc44qoy1qhk"></path></g><path d="M90.75,361.32c3.44,3.1,13.88,6.25,21.32,4.12l1.9-6c-5.61,1.48-16.82-.46-22.63-4.62Z" style="fill: #407BFF; transform-origin: 102.36px 360.478px;" id="elgjgy8oummws" class="animable"></path><g id="elxozx05533qn"><path d="M90.75,361.32c3.44,3.1,13.88,6.25,21.32,4.12l1.9-6c-5.61,1.48-16.82-.46-22.63-4.62Z" style="opacity: 0.6; transform-origin: 102.36px 360.478px;" class="animable" id="elvh8fa48uv7"></path></g><path d="M146.73,360.55c2.45,2.52,15.16,4.25,21.94.36l.55-6.16c-5.14,2.8-18.19,2.65-23.18-.32Z" style="fill: #407BFF; transform-origin: 157.63px 358.813px;" id="elwtzwndn142" class="animable"></path><g id="elm7f7uylen3"><path d="M146.73,360.55c2.45,2.52,15.16,4.25,21.94.36l.55-6.16c-5.14,2.8-18.19,2.65-23.18-.32Z" style="opacity: 0.6; transform-origin: 157.63px 358.813px;" class="animable" id="elbbfn4mkro1i"></path></g><g id="eltwui6lsxc0m"><path d="M98.21,268.93s-2,28-2.14,30,14.41,7.33,14.92,6.09c.85-2.05,1.14-6.78,4.62-29.38C103.4,273,98.21,268.93,98.21,268.93Z" style="opacity: 0.3; transform-origin: 105.839px 287.067px;" class="animable" id="elaq2oot9dfy"></path></g><g id="elm9hcx0stxen"><path d="M112.53,283.29a4.38,4.38,0,0,0-1.39-.25c-.55-.06-1.09-.14-1.63-.23a26.26,26.26,0,0,1-3.39-.85,26.81,26.81,0,0,1-3.65-1.48c-1-.48-1.86-1.08-2.82-1.55-.09,0-.13.14-.07.19a14.79,14.79,0,0,0,3,1.89,24.72,24.72,0,0,0,6.39,2.21c.57.11,1.14.21,1.72.28a3.78,3.78,0,0,0,1.83,0C112.59,283.51,112.62,283.33,112.53,283.29Z" style="opacity: 0.3; transform-origin: 106.069px 281.271px;" class="animable" id="elgnir7x1u3kc"></path></g><g id="ele0gw898jz6o"><path d="M106.41,278.86c-.11-.29-.2-.48-.52-.54a1,1,0,0,0-.77.12.9.9,0,0,0-.43.58,1,1,0,0,0,.43,1.08,1,1,0,0,0,1.07.08.71.71,0,0,0,.32-.6A1.49,1.49,0,0,0,106.41,278.86Zm-.36.81a.61.61,0,0,1-.76.08c-.36-.26-.21-1,.26-1a.57.57,0,0,1,.4.15A.6.6,0,0,1,106.05,279.67Z" style="opacity: 0.3; transform-origin: 105.59px 279.294px;" class="animable" id="elx8q520jstd"></path></g></g><g id="freepik--top--inject-10" class="animable" style="transform-origin: 167.965px 155.216px;"><g id="freepik--arm--inject-10" class="animable" style="transform-origin: 210.525px 156.946px;"><path d="M160.06,125.12c8.48,2.4,11.3,4.38,17.58,13.49,4.71,6.84,16.69,26.58,16.69,26.58s2.09,24.44-3.18,24.28a11.64,11.64,0,0,1-8-3.45c-7.28-7.66-19.47-25-19.47-25Z" style="fill: rgb(255, 189, 167); transform-origin: 177.399px 157.295px;" id="elmiy9nxf9kue" class="animable"></path><path d="M159.77,124.36c4.84.62,10.87,2.85,14.68,7.88s14.39,22.53,14.39,22.53-.29,5.25-6.55,11.52-11.87,6.27-11.87,6.27l-15.51-23.28Z" style="fill: rgb(69, 90, 100); transform-origin: 171.875px 148.46px;" id="el6rj4ytor2sg" class="animable"></path><path d="M193.6,164c-3.3,2.75-8.53,16.51-8.53,16.51s-1.65-5.88.57-11.22a28.7,28.7,0,0,1,5.82-8.79Z" style="fill: rgb(240, 153, 122); transform-origin: 189.04px 170.505px;" id="el740yrodjgfa" class="animable"></path><path d="M242.35,148.87c1.12-1.89,4-.92,5.54-2.14a1.54,1.54,0,0,0-.36-2.68c-1.17-.61-2.56-.32-3.82-.42a10.65,10.65,0,0,1-4.18-1.35c-2.73-1.47-6.21-2.65-9.11-.86a10.88,10.88,0,0,1,1.86,1.16C235.64,144.68,239,146.75,242.35,148.87Z" style="fill: rgb(240, 153, 122); transform-origin: 239.47px 144.693px;" id="el19tq6z72l83" class="animable"></path><path d="M253.83,148.82l-1.13.4c-.48.18-1,.34-1.44.53-.23.09-.45.19-.68.3s-.56.38-.65.36c-1.1-.31-2.44-1.14-4.31-1s-2.31.45-4.67-1.64c-1.6-1.4-3.47-3.84-5.63-5.13s-4.42-2.11-7-.15-4,3.35-6.74,5.21c-2.08,1.41-3.57,2.47-14.24,8.44-7.84,4.38-14.29,6.9-19.55,14-2.12,2.87-6.66,13.66-4.58,15.91,3,3.19,10.37,6,18.75-.23a109.33,109.33,0,0,0,10.92-9.24c3.46-3.27,5-5,9.91-9.7s7.77-7.14,10.54-8.4c2.37-1.08,5.33-.55,7.33-.26a20,20,0,0,0,7.88-.13c2.64-.41,4.37-1,6.19-1.34s3.41-1.47,5.19-2.34l3.08-1.46a2.41,2.41,0,0,0,.92-.6c.12-.18-.05-.63-.11-.84a1.5,1.5,0,0,0-.34-.57,4.72,4.72,0,0,0,1.12-.16c.34-.07.62-.15,1-.19s.52-.15.55-.4a.62.62,0,0,0-.14-.41,3,3,0,0,0-1.45-1.1,8.77,8.77,0,0,0-2.46-.28,1,1,0,0,1-.35-.07,2.18,2.18,0,0,1-.38-.3,1.89,1.89,0,0,0-1.42-.39,23.87,23.87,0,0,0-2.67.56c-.54.11-1.1.13-1.64.22A12,12,0,0,0,253.83,148.82Z" style="fill: rgb(255, 189, 167); transform-origin: 224.409px 165.426px;" id="elg8uvk4zvoy9" class="animable"></path><path d="M245.14,150.24c-.37-.16-.73-.35-1.11-.52l-.3-.15a16.18,16.18,0,0,0,2.33,0c1.36-.06,2.43.59,3.71,1a.84.84,0,0,0,.48-.09,18.43,18.43,0,0,1,6.65-2.15c1.46-.18,3-1.18,4.4-.29-1.28-1-3,0-4.46.06a18.46,18.46,0,0,0-6.7,1.91l-.2.12a11.33,11.33,0,0,0-4-1,12.9,12.9,0,0,1-2.22,0c-2.84-1-4.48-4-6.87-5.74-2.4-1.94-6-3.24-8.53-.88,3.39-2.27,6.31-.48,8.91,1.9a5.23,5.23,0,0,0-6.34-.2,6,6,0,0,0-1.7,1.68,19.31,19.31,0,0,1,2-1.4,7.75,7.75,0,0,1,2.07-.64,7.35,7.35,0,0,1,4.17.76c1.39,1.3,2.69,2.75,3.92,3.8a6.46,6.46,0,0,0,1.86,1.06,7.79,7.79,0,0,0,1.8,1.16,5.34,5.34,0,0,0,2.45.51A16.23,16.23,0,0,1,245.14,150.24Zm5.31,2.3a8.33,8.33,0,0,1,.86,0,7.53,7.53,0,0,1,.83.07c.28,0,.55.1.81.16a6.77,6.77,0,0,1,.76.25l.14.06.18-.1a6.16,6.16,0,0,1,1.94-.73,7.65,7.65,0,0,1,2.06-.12l.13,0,.08-.05a10.9,10.9,0,0,1,1.8-.92,6.73,6.73,0,0,1,2.13-.34,1.15,1.15,0,0,0-.36-.07,3.33,3.33,0,0,0-.63,0,7.25,7.25,0,0,0-2.44.62,2.53,2.53,0,0,1-.63.28,2.58,2.58,0,0,1-.68,0,5.2,5.2,0,0,0-2.82.55,2.46,2.46,0,0,1-.62.28,2.24,2.24,0,0,1-.89-.06A4.21,4.21,0,0,0,250.45,152.54Zm10.08-3.93c-.32.1-.62.25-.94.34-.65.18-1.34.12-2,.25a3.55,3.55,0,0,0-1.84,1,.39.39,0,0,1-.1.08c-.21.12-.59,0-.8-.08s-.64-.13-1-.18a7,7,0,0,0-3,.34c.4,0,.8-.1,1.19-.11a9.13,9.13,0,0,1,1.17,0,8.81,8.81,0,0,1,1.15.14,6.4,6.4,0,0,1,1.07.31l.19.08.16-.14a5.24,5.24,0,0,1,1.7-1,7.69,7.69,0,0,1,1.84-.36l.36-.07a1.89,1.89,0,0,0,.33-.13,7.93,7.93,0,0,1,1.55-.61c-.16,0-.35,0-.51,0A4.39,4.39,0,0,0,260.53,148.61Z" style="fill: rgb(240, 153, 122); transform-origin: 245.245px 147.16px;" id="eludphtxcs1cs" class="animable"></path></g><g id="freepik--chest--inject-10" class="animable" style="transform-origin: 136.824px 173.503px;"><path id="freepik--chest--inject-10" d="M126.54,125c-8.46,1.35-14.33,2.68-18.41,3.59,0,0-10.19,7.28-7.28,37.75.41,4.31,1.4,16.63,1.31,27-.06,7.37.11,17.33-.23,22.47,0,0,17.06,9.91,45.54,6.84,22.37-2.41,25.76-10.56,25.76-10.56s.44-36.3-.62-53.34c-1.39-22.39-6.58-27.34-12.84-34.34a108,108,0,0,0-13.72-.62C138.26,123.75,135,123.6,126.54,125Z" style="fill: rgb(240, 240, 240); transform-origin: 136.824px 173.503px;" class="animable"></path><path d="M164.6,146.07a80.47,80.47,0,0,1,1.49,14.68c-11.07,3.94-24.59,6.93-37.63,6.4-.08-5.51-.49-10.09-1-15.3C136.61,152.16,153.18,150.13,164.6,146.07Z" style="fill: rgb(224, 224, 224); transform-origin: 146.775px 156.64px;" id="el8gnt9103vfx" class="animable"></path></g><g id="freepik--head--inject-10" class="animable" style="transform-origin: 140.38px 98.9228px;"><path d="M120.36,78.89s-3.64.57-5.72,5.15c-1,2.31-1.63,7.89,2.5,19.11a45,45,0,0,0,6.73,12.21,5.93,5.93,0,0,0,3.66,2.35l-.89-8.82-.77-7.62s5.13-1.8,6-8.89c.67-5.71-1.79-7.84-1.79-7.84Z" style="fill: rgb(38, 50, 56); transform-origin: 122.942px 98.3px;" id="elic86ybj05ln" class="animable"></path><path d="M114.87,83.28c-1.67-8.71,15-21.46,25.46-15.37,3.42-4.91,11.92-3,12.85,2,3-1.51,8.94,5.36,7.63,9.1,3,8.14-1.06,11.51-5.09,11.51-9.88,0-20.46-.37-30.41.31Z" style="fill: rgb(38, 50, 56); transform-origin: 138.301px 77.9413px;" id="el2ol8q23jmg4" class="animable"></path><path d="M156.08,78.52c2.1,1.83,5.14,6,6.09,21.7.65,10.67-1.92,15.44-5.78,17.39A23.28,23.28,0,0,1,146,120l.15,6.39c9.47,8.61-16,11.21-22.42-.14l-.13-17.51c-.66,1.31-4.08,2.23-6.67-.23-4.1-3.88-3.44-9.62-.51-11.83s7.36-1.84,9.06,2.37c3.45,1.11,5.86-3.63,4.56-16.48C143.91,85.73,147.22,74.71,156.08,78.52Z" style="fill: rgb(255, 189, 167); transform-origin: 138.154px 105.771px;" id="elobug4brp71f" class="animable"></path><path d="M146,120c-11.19-.35-16.48-5.52-17.89-9.6,0,0-.34,7,7.5,10.39a22,22,0,0,0,10.36,1.91Z" style="fill: rgb(240, 153, 122); transform-origin: 137.054px 116.569px;" id="elx4wboarfd" class="animable"></path><path d="M150.44,106.67l-7.4-2a3.66,3.66,0,0,0,2.52,4.69A4.05,4.05,0,0,0,150.44,106.67Z" style="fill: rgb(177, 102, 104); transform-origin: 146.646px 107.08px;" id="el16luxwgsd5o" class="animable"></path><path d="M147.22,109.39a3.89,3.89,0,0,1-1.66-.08,3.64,3.64,0,0,1-2.63-2.88A4.43,4.43,0,0,1,147.22,109.39Z" style="fill: rgb(242, 143, 143); transform-origin: 145.075px 107.936px;" id="elaew8bsrxd5b" class="animable"></path><path d="M139.42,94.07a2.09,2.09,0,1,0,1.84-2.3A2.08,2.08,0,0,0,139.42,94.07Z" style="fill: rgb(38, 50, 56); transform-origin: 141.497px 93.8464px;" id="elu90tz0rcb8" class="animable"></path><path d="M154.12,92.2A2.09,2.09,0,1,0,156,89.91,2.09,2.09,0,0,0,154.12,92.2Z" style="fill: rgb(38, 50, 56); transform-origin: 156.199px 91.9905px;" id="elmwlu78cyr5h" class="animable"></path><polygon points="147.79 89.64 150.15 102.5 156.45 98.94 147.79 89.64" style="fill: rgb(240, 153, 122); transform-origin: 152.12px 96.07px;" id="elaai10onwkrf" class="animable"></polygon><path d="M158.25,87.68l-4.95-1.1a2.44,2.44,0,0,1,2.94-2A2.65,2.65,0,0,1,158.25,87.68Z" style="fill: rgb(38, 50, 56); transform-origin: 155.8px 86.1009px;" id="elt3dj0abh58" class="animable"></path><path d="M137.33,90.46l4.45-2.55a2.47,2.47,0,0,0-3.43-1A2.67,2.67,0,0,0,137.33,90.46Z" style="fill: rgb(38, 50, 56); transform-origin: 139.402px 88.5188px;" id="el2t0kkncgzqs" class="animable"></path><g id="freepik--Cap--inject-10" class="animable" style="transform-origin: 140.38px 80.9362px;"><path d="M158.05,78.07c-20.43.47-28.94,10-28.94,10-2.32,1.65-6,4.72-7.25,7.5a6.45,6.45,0,0,0-6.58,2.29,15.33,15.33,0,0,1-1.48-4.2c-1.6-6.83-2.07-21,14-26.77,14.79-5.27,25.38-3.09,28.79,4.81A33.71,33.71,0,0,1,158.05,78.07Z" style="fill: rgb(69, 90, 100); transform-origin: 135.551px 80.9362px;" id="elna5514kiac" class="animable"></path><path d="M128.63,86.15a27.92,27.92,0,0,1,9.12-11.55c4.49-3.52,14.53-5.34,19.06-6,7.92-1.18,10.08.24,10.36,1.42.07.28.39,1.59.47,1.88a1.2,1.2,0,0,1,0,.8c-.89,2-6.78,6.32-6.78,6.32-10.31-1.18-22.39,2.52-31.7,9.06Z" style="fill: #407BFF; transform-origin: 148.169px 78.1184px;" id="ele388e7rlpxh" class="animable"></path><path d="M129.11,88.06c9.31-6.54,21.64-9.84,31.7-9.06,0,0,5.89-4.27,6.78-6.32.48-1.13-.5-3.65-10.3-2.18-4.53.67-14.57,2.49-19,6A28,28,0,0,0,129.11,88.06Z" style="fill: rgb(55, 71, 79); transform-origin: 148.399px 79.0558px;" id="elm60ncvej1aa" class="animable"></path></g></g><g id="freepik--arm--inject-10" class="animable" style="transform-origin: 99.5565px 187.48px;"><path d="M107.7,130.82c-4,.68-14,2.33-17.88,10.12-5,10.14-12.74,27.28-17.7,40-3,7.61-3.18,10-.09,16.74,3,6.45,17.73,28,23.24,34.42,4.09,4.74,11.85,12.62,14.64,14.32,0,0,4.68-2.66,6.29-18.64,0,0,.26-1.74,4.41-.29,2.89,1,6.55,1.22,8.29-.45s-2.32-2.57-4.38-3.84a24.45,24.45,0,0,0-10-4.12c-5.13-.87-9.07-1.66-12-8.13-5.53-12.31-8.63-19.33-8.63-19.33l14.49-30.89C113.2,150.75,111.91,139.88,107.7,130.82Z" style="fill: rgb(255, 189, 167); transform-origin: 99.5565px 188.62px;" id="elvzfhwdx28nd" class="animable"></path><path d="M108.13,128.54c-12.35,3.1-16.81,6.31-22.24,18.93-3.66,8.49-10,23.22-10,23.22s2.73,5,10.17,7.79c10.5,3.9,14,2.13,14,2.13s5.35-11.71,9.78-21.07C115.47,147.71,112.72,133.69,108.13,128.54Z" style="fill: rgb(69, 90, 100); transform-origin: 94.4411px 154.775px;" id="elpii9rmyrcns" class="animable"></path><path d="M93.94,191.58c-3.22-4.23-10.13-4.52-10.13-4.52a13.15,13.15,0,0,1,11,2.67Z" style="fill: rgb(240, 153, 122); transform-origin: 89.31px 189.18px;" id="el6i71f9wnuea" class="animable"></path></g></g></g></g><defs>     <filter id="active" height="200%">         <feMorphology in="SourceAlpha" result="DILATED" operator="dilate" radius="2"></feMorphology>                <feFlood flood-color="#32DFEC" flood-opacity="1" result="PINK"></feFlood>        <feComposite in="PINK" in2="DILATED" operator="in" result="OUTLINE"></feComposite>        <feMerge>            <feMergeNode in="OUTLINE"></feMergeNode>            <feMergeNode in="SourceGraphic"></feMergeNode>        </feMerge>    </filter>    <filter id="hover" height="200%">        <feMorphology in="SourceAlpha" result="DILATED" operator="dilate" radius="2"></feMorphology>                <feFlood flood-color="#ff0000" flood-opacity="0.5" result="PINK"></feFlood>        <feComposite in="PINK" in2="DILATED" operator="in" result="OUTLINE"></feComposite>        <feMerge>            <feMergeNode in="OUTLINE"></feMergeNode>            <feMergeNode in="SourceGraphic"></feMergeNode>        </feMerge>            <feColorMatrix type="matrix" values="0   0   0   0   0                0   1   0   0   0                0   0   0   0   0                0   0   0   1   0 "></feColorMatrix>    </filter></defs></svg>